HIERARCHY
ROOT Hips
{
  OFFSET -2.9740628571428576 95.22824285714285 -3.405862857142857
  CHANNELS 6 Xposition Yposition Zposition Zrotation Xrotation Yrotation
  JOINT LeftUpLeg
  {
    OFFSET 8.64259 1.9539799999999998 -2.3883499999999995
    CHANNELS 3 Zrotation Xrotation Yrotation
    JOINT LeftLeg
    {
      OFFSET 43.770199999999996 0.0 0.0
      CHANNELS 3 Zrotation Xrotation Yrotation
      JOINT LeftFoot
      {
        OFFSET 40.62380000000001 0.0 0.0
        CHANNELS 3 Zrotation Xrotation Yrotation
        JOINT LeftToeBase
        {
          OFFSET 12.724199999999998 0.0 0.0
          CHANNELS 3 Zrotation Xrotation Yrotation
          End Site
          {
            OFFSET 0.0 0.0 0.0
          }
        }
      }
    }
  }
  JOINT RightUpLeg
  {
    OFFSET -8.2249 1.9539799999999998 -2.59336
    CHANNELS 3 Zrotation Xrotation Yrotation
    JOINT RightLeg
    {
      OFFSET 43.56529999999999 0.0 0.0
      CHANNELS 3 Zrotation Xrotation Yrotation
      JOINT RightFoot
      {
        OFFSET 40.62380000000001 0.0 0.0
        CHANNELS 3 Zrotation Xrotation Yrotation
        JOINT RightToeBase
        {
          OFFSET 12.724199999999998 0.0 0.0
          CHANNELS 3 Zrotation Xrotation Yrotation
          End Site
          {
            OFFSET 0.0 0.0 0.0
          }
        }
      }
    }
  }
  JOINT Spine
  {
    OFFSET 0.16583 0.8771399999999999 6.61349
    CHANNELS 3 Zrotation Xrotation Yrotation
    JOINT Spine1
    {
      OFFSET 7.389628571428571 2e-05 0.0
      CHANNELS 3 Zrotation Xrotation Yrotation
      JOINT Spine2
      {
        OFFSET 11.944500000000001 1e-05 0.0
        CHANNELS 3 Zrotation Xrotation Yrotation
        JOINT Spine3
        {
          OFFSET 14.725400000000004 4e-05 0.0
          CHANNELS 3 Zrotation Xrotation Yrotation
          JOINT Spine4
          {
            OFFSET 10.9679 0.0 0.0
            CHANNELS 3 Zrotation Xrotation Yrotation
            JOINT RightShoulder
            {
              OFFSET 2.46616 -1.6653 3.69651
              CHANNELS 3 Zrotation Xrotation Yrotation
              JOINT RightArm
              {
                OFFSET 13.001199999999999 0.0 0.0
                CHANNELS 3 Zrotation Xrotation Yrotation
                JOINT RightForeArm
                {
                  OFFSET 28.784799999999997 2e-05 0.0
                  CHANNELS 3 Zrotation Xrotation Yrotation
                  JOINT RightHand
                  {
                    OFFSET 26.568800000000003 2e-05 0.0
                    CHANNELS 3 Zrotation Xrotation Yrotation
                    JOINT RightHandMiddle1
                    {
                      OFFSET 8.03675 -0.8865800000000001 0.7278700000000001
                      CHANNELS 3 Zrotation Xrotation Yrotation
                      JOINT RightHandMiddle2
                      {
                        OFFSET 2.7883299999999993 0.0 0.0
                        CHANNELS 3 Zrotation Xrotation Yrotation
                        JOINT RightHandMiddle3
                        {
                          OFFSET 2.4115500000000005 0.0 0.0
                          CHANNELS 3 Zrotation Xrotation Yrotation
                          End Site
                          {
                            OFFSET 0.0 0.0 0.0
                          }
                        }
                      }
                    }
                    JOINT RightHandRing1
                    {
                      OFFSET 7.979660000000002 -0.8867700000000002 -1.00486
                      CHANNELS 3 Zrotation Xrotation Yrotation
                      JOINT RightHandRing2
                      {
                        OFFSET 2.8636799999999996 0.0 0.0
                        CHANNELS 3 Zrotation Xrotation Yrotation
                        JOINT RightHandRing3
                        {
                          OFFSET 2.11079 0.0 0.0
                          CHANNELS 3 Zrotation Xrotation Yrotation
                          End Site
                          {
                            OFFSET 0.0 0.0 0.0
                          }
                        }
                      }
                    }
                    JOINT RightHandPinky1
                    {
                      OFFSET 8.03707 -0.8875299999999999 -2.6069600000000004
                      CHANNELS 3 Zrotation Xrotation Yrotation
                      JOINT RightHandPinky2
                      {
                        OFFSET 1.8462757142857142 0.0 0.0
                        CHANNELS 3 Zrotation Xrotation Yrotation
                        JOINT RightHandPinky3
                        {
                          OFFSET 1.8843400000000001 0.0 0.0
                          CHANNELS 3 Zrotation Xrotation Yrotation
                          End Site
                          {
                            OFFSET 0.0 0.0 0.0
                          }
                        }
                      }
                    }
                    JOINT RightHandIndex1
                    {
                      OFFSET 7.92262 -0.8855000000000002 2.31175
                      CHANNELS 3 Zrotation Xrotation Yrotation
                      JOINT RightHandIndex2
                      {
                        OFFSET 2.63761 0.0 0.0
                        CHANNELS 3 Zrotation Xrotation Yrotation
                        JOINT RightHandIndex3
                        {
                          OFFSET 2.16656 0.0 0.0
                          CHANNELS 3 Zrotation Xrotation Yrotation
                          End Site
                          {
                            OFFSET 0.0 0.0 0.0
                          }
                        }
                      }
                    }
                    JOINT RightHandThumb1
                    {
                      OFFSET 3.4769 0.059800000000000006 2.8878899999999996
                      CHANNELS 3 Zrotation Xrotation Yrotation
                      JOINT RightHandThumb2
                      {
                        OFFSET 2.7768599999999997 0.00010000000000000002 -2e-05
                        CHANNELS 3 Zrotation Xrotation Yrotation
                        JOINT RightHandThumb3
                        {
                          OFFSET 2.420578571428571 -9e-05 0.0
                          CHANNELS 3 Zrotation Xrotation Yrotation
                          End Site
                          {
                            OFFSET 0.0 0.0 0.0
                          }
                        }
                      }
                    }
                  }
                }
              }
            }
            JOINT LeftShoulder
            {
              OFFSET 2.3803400000000003 -1.29275 -3.7523014285714282
              CHANNELS 3 Zrotation Xrotation Yrotation
              JOINT LeftArm
              {
                OFFSET 16.3182 5.9999999999999995e-05 0.0
                CHANNELS 3 Zrotation Xrotation Yrotation
                JOINT LeftForeArm
                {
                  OFFSET 27.090100000000003 0.0 0.0
                  CHANNELS 3 Zrotation Xrotation Yrotation
                  JOINT LeftHand
                  {
                    OFFSET 24.545099999999998 2e-05 0.0
                    CHANNELS 3 Zrotation Xrotation Yrotation
                    JOINT LeftHandMiddle1
                    {
                      OFFSET 9.218019999999997 0.66582 0.5455300000000002
                      CHANNELS 3 Zrotation Xrotation Yrotation
                      JOINT LeftHandMiddle2
                      {
                        OFFSET 2.66255 0.0 0.0
                        CHANNELS 3 Zrotation Xrotation Yrotation
                        JOINT LeftHandMiddle3
                        {
                          OFFSET 2.2804 0.0 0.0
                          CHANNELS 3 Zrotation Xrotation Yrotation
                          End Site
                          {
                            OFFSET 0.0 0.0 0.0
                          }
                        }
                      }
                    }
                    JOINT LeftHandRing1
                    {
                      OFFSET 9.247749999999998 0.66519 -1.1266999999999998
                      CHANNELS 3 Zrotation Xrotation Yrotation
                      JOINT LeftHandRing2
                      {
                        OFFSET 2.4704099999999998 0.0 -2e-05
                        CHANNELS 3 Zrotation Xrotation Yrotation
                        JOINT LeftHandRing3
                        {
                          OFFSET 2.2054000000000005 0.0 0.0
                          CHANNELS 3 Zrotation Xrotation Yrotation
                          End Site
                          {
                            OFFSET 0.0 0.0 0.0
                          }
                        }
                      }
                    }
                    JOINT LeftHandPinky1
                    {
                      OFFSET 9.35383857142857 0.66301 -2.7233200000000006
                      CHANNELS 3 Zrotation Xrotation Yrotation
                      JOINT LeftHandPinky2
                      {
                        OFFSET 1.63407 0.0 0.0
                        CHANNELS 3 Zrotation Xrotation Yrotation
                        JOINT LeftHandPinky3
                        {
                          OFFSET 1.71176 0.0 0.0
                          CHANNELS 3 Zrotation Xrotation Yrotation
                          End Site
                          {
                            OFFSET 0.0 0.0 0.0
                          }
                        }
                      }
                    }
                    JOINT LeftHandIndex1
                    {
                      OFFSET 8.731608571428572 0.6758999999999998 2.0680099999999997
                      CHANNELS 3 Zrotation Xrotation Yrotation
                      JOINT LeftHandIndex2
                      {
                        OFFSET 2.6668899999999995 0.0 0.0
                        CHANNELS 3 Zrotation Xrotation Yrotation
                        JOINT LeftHandIndex3
                        {
                          OFFSET 2.12946 0.0 2e-05
                          CHANNELS 3 Zrotation Xrotation Yrotation
                          End Site
                          {
                            OFFSET 0.0 0.0 0.0
                          }
                        }
                      }
                    }
                    JOINT LeftHandThumb1
                    {
                      OFFSET 4.967354285714285 -0.62265 3.3958599999999994
                      CHANNELS 3 Zrotation Xrotation Yrotation
                      JOINT LeftHandThumb2
                      {
                        OFFSET 2.15386 2e-05 0.0
                        CHANNELS 3 Zrotation Xrotation Yrotation
                        JOINT LeftHandThumb3
                        {
                          OFFSET 2.1951099999999997 -2.9999999999999997e-05 2e-05
                          CHANNELS 3 Zrotation Xrotation Yrotation
                          End Site
                          {
                            OFFSET 0.0 0.0 0.0
                          }
                        }
                      }
                    }
                  }
                }
              }
            }
            JOINT Neck
            {
              OFFSET 5.0226 -0.026629999999999994 0.0
              CHANNELS 3 Zrotation Xrotation Yrotation
              JOINT Head
              {
                OFFSET 6.693637142857143 2.9999999999999997e-05 0.0
                CHANNELS 3 Zrotation Xrotation Yrotation
                End Site
                {
                  OFFSET 0.0 0.0 0.0
                }
              }
            }
          }
        }
      }
    }
  }
}
MOTION
Frames: 4
Frame Time: 0.03333333
5.712623829120542 82.83571948544774 12.212976351440846 52.744168371422866 103.41890916066468 106.2237481607978 -149.85728824690165 17.657101100517938 88.98956343418459 -76.25102255393206 -4.43481984214469 -1.4834382397926664 92.53339447267327 7.173202631885425 6.366937490153333 28.780799999999825 5.418988197656682e-06 4.447298146556004e-06 -22.918926087580793 44.038157509178944 88.39904978494175 -51.60105939565836 30.668860192285504 2.2645859569756936 64.58953677591704 9.310950753649552 7.313396498548457 28.780799800221878 1.4098676817911313e-05 1.904874565551947e-05 -2.970204838311524 7.276297286553038 -90.86881246764209 12.120681012181054 -6.339295182799359 -5.102033600744371 0.37292547465155024 -6.480208123391606 -4.716397774022379 -22.217405542515642 -4.519787370859742 -6.725766262889055 -2.2631597395277065 -4.414792678601378 -6.67006189140335 138.10637289003654 -76.47725341301151 -36.952881470131715 7.804724052405865 30.253660507373713 -49.993376903996676 24.53434260032973 18.43440992564086 -13.296756518897197 -33.33488173613549 11.124419321940582 -40.9249322260859 -89.403913316301 88.97089999999815 89.09361993527686 -0.060489363308643976 1.2228029189211927e-05 1.0715167228163417e-06 -0.06392017883920179 -1.6865174954492305e-05 -7.810754139594212e-07 -89.39441732945339 88.98101458382794 89.08412689718138 -1.1574205658641064 -8.181289631001601e-07 2.4878799426066573e-07 2.5760001029204465 1.694225476409896e-05 -2.5648473427314273e-06 -88.85652066987473 89.35789999999623 88.54640282486268 -1.1457801255818585 2.6733986090032666e-06 0.00028154062466615956 1.1457700651509717 -7.235045780089644e-07 -5.263679171186107e-07 -89.4222051751274 88.94870000000473 89.11198975649468 0.4092864372107994 1.1996687723785011e-05 0.00040212485456237856 -0.6366000449287118 -1.1027170281076443e-05 -5.413467244555506e-07 104.36399981869143 40.50230408647261 -88.824601993104 -7.669018405532699 0.18617745807554248 -1.3504482839910026 -11.263399999999283 -7.928311499058248e-06 6.911030444503518e-05 -105.15636743580991 -28.529272881988238 41.66734859883669 -60.23620487851298 31.16120854271577 -52.20085711204055 39.90046756956556 54.196642517067396 -53.324381792234234 46.58654631292216 -20.133409700743833 -52.54467242785662 -91.18731654339774 -87.82889999999777 -89.99881590221422 3.4088797491258873 4.46243302222553e-06 0.003271997093714568 -0.9548598880416322 -1.1294813805123263e-06 3.6679691229910544e-07 -91.18717809988432 -89.4015000000032 -89.998564829362 2.856368865422636 4.681481016393482e-07 0.00282874302892461 -3.1684401166791187 9.959799244994009e-06 2.5179271331475575e-07 88.80828040273744 -89.71700421891872 89.99676536765058 2.5448098675884747 1.8108036293447302e-06 0.0027436271157058735 -2.544820004782675 -4.060849666801864e-06 9.902274825580783e-08 -91.1883776666805 -86.19729999999672 -89.99987938275936 6.1310394813141595 2.951612604076953e-06 0.0065922295643299576 -2.0454210915675333 -3.7463488522230854e-06 1.3595197818120434e-06 -101.94899999999932 -40.72419999999841 -90.06939999999592 10.017199999999937 1.6092462030847522e-05 4.5907020800379105e-06 -2.6697696180072112 -1.496816899556691e-05 -1.9377283483525356e-06 54.27626440400914 -2.3388302523146667 -35.58497296761766 -33.36554038830093 6.9494457663542075 13.947655621582848
11.78608972712371 82.48497265912522 11.530278655513955 51.692366895412896 102.03631979952361 105.21727848976894 -147.0970695284788 18.759294977753687 90.68979709659709 -76.74050211963124 -2.657370529868313 -1.0488855409898665 90.54468756882017 6.947865252611104 6.1322180498937 28.78079999999983 5.405780204152641e-06 4.448911255744e-06 -11.525607765010491 42.426699827509054 86.23957937963985 -46.60356290120953 29.86517062117784 1.8382442621872566 62.04017073043458 11.021359255803603 9.168172629195308 28.78079968935571 1.4102167693574116e-05 1.9043951554976104e-05 -3.08651592869978 7.480242109077271 -91.28776006602901 11.705763668589505 -6.624223916358297 -5.505483007985092 -0.041692203312823084 -6.7792422667682155 -5.0975345865044766 -22.642686260847473 -4.670780411139434 -7.197281700802068 -2.675325100007635 -4.555374783748535 -7.132596104996468 139.55099671845196 -78.52761726806222 -35.25097335525785 4.626705130745814 27.94763134359876 -45.43510435967116 22.479202026096015 17.706716240677434 -6.778498679399441 -30.332658134457105 10.742297637856252 -39.515380287189146 -89.4039116533907 88.9708999999982 89.0936182941714 -0.060489381521266684 1.2238204006535728e-05 9.8241149264852e-07 -0.06392018678019325 -1.683952299278046e-05 -7.862760203030273e-07 -89.39441784575784 88.98101504975236 89.08412727865624 -1.157420575588483 -7.593481568704975e-07 2.4906597896812204e-07 2.5760000838985486 1.687113374233443e-05 -2.5584561176775413e-06 -88.856517673243 89.3578999999963 88.54640006501717 -1.1457801320807215 2.676115079290469e-06 0.000281082554899782 1.1457700778325552 -7.067088474527873e-07 -5.259030161403772e-07 -89.4222015566771 88.94870000000462 89.11198602007939 0.40928642916591884 1.200303247724387e-05 0.0004021033667604877 -0.6366000186305407 -1.1043914684417625e-05 -5.398400116189337e-07 104.36399980938901 40.502304246877614 -88.82460209149232 -7.669017620821494 0.18617738662237268 -1.3504483873270225 -11.263399999999299 -7.83400767009049e-06 6.906128052186353e-05 -105.21840599518725 -25.623788212051572 40.97829279100662 -58.25473550383579 29.656744545995885 -57.90534516400366 45.0944757400244 58.07722600097823 -55.024059220406556 46.44931155507658 -19.84842409713527 -52.3159440221305 -91.18731573197338 -87.82889999999783 -89.99881509047849 3.4088797473495984 4.406762309222647e-06 0.0032727346235021815 -0.9548598465152862 -1.068961566733345e-06 3.134583026165142e-07 -91.18717999086302 -89.40150000000314 -89.99856689753169 2.8563688147733766 4.955484253712494e-07 0.0028299082701818733 -3.1684401255709025 1.000148442503852e-05 2.5445555084399064e-07 88.80828202523921 -89.71700410467992 89.9967667265396 2.5448098785624285 1.7880600019568719e-06 0.002746720822638937 -2.5448200051222676 -4.0679802744620845e-06 9.650861920626023e-08 -91.18837720937633 -86.19729999999679 -89.99987884067943 6.131039480809984 2.934973390864183e-06 0.0065908211959153475 -2.045421130959333 -3.7853313998468018e-06 1.4007946683302742e-06 -101.94899999999933 -40.724199999998454 -90.06939999999602 10.017199999999939 1.6237942444465554e-05 4.5829386569596776e-06 -2.6697696811912106 -1.5042496235350953e-05 -1.941505266577513e-06 53.8873725487952 -2.631929061962558 -35.51058539684424 -32.902747529795754 7.449086872427957 13.972317642831825
15.367171248026743 82.44599092885457 11.22680621479964 50.59214252549685 100.22867745659073 103.5895416525257 -144.15895536948088 20.290091388391073 92.4169650659402 -76.89186431156655 -1.3513223477309881 -0.4862407610904075 87.85460172512921 6.322945338398176 5.629473018227967 28.780799999999832 5.394418786476393e-06 4.440397643442056e-06 -0.7881892646717716 40.22199052016863 83.80081663506726 -41.24736383045839 29.03546648500569 1.550087604098908 58.495940477512995 12.335671196228477 10.936565561375255 28.780799578269527 1.4109117120813473e-05 1.9040147734234135e-05 -3.2458733931176376 7.641265857275725 -91.58490839745227 11.374399966812826 -6.96178528093789 -5.723413639730247 -0.37026591203929876 -7.121929368847358 -5.290299169924724 -22.983857495535823 -4.926189059217526 -7.505784831404454 -3.007627976954823 -4.80204496389255 -7.432372984640743 141.64369103319714 -79.54839263917935 -32.73686901494551 1.654251641305292 26.620499460475983 -41.42348287326061 20.21121298843015 17.429872371964162 -1.3062540609424715 -27.47612817536183 10.532263658484823 -39.047571772128855 -89.4039094362476 88.97089999999825 89.09361606396307 -0.06048940167147993 1.2246727429939436e-05 9.015593785779417e-07 -0.06392019341363243 -1.6795803056245475e-05 -7.922778425452392e-07 -89.39441842861687 88.9810154118695 89.08412755243758 -1.1574205869314032 -7.113742081857657e-07 2.516156101604821e-07 2.5760000664845784 1.680828572043473e-05 -2.55145248299249e-06 -88.85651470715588 89.3578999999964 88.5463972711753 -1.1457801398840077 2.679308415299373e-06 0.0002805472161162686 1.1457700920620675 -6.883562547061798e-07 -5.26757384649782e-07 -89.42219767023931 88.9487000000045 89.1119820018428 0.40928642404924764 1.2008416001839636e-05 0.0004017655225876076 -0.6365999951871166 -1.1074494818863109e-05 -5.350861217133551e-07 104.36399979996567 40.502304470182956 -88.82460222639688 -7.669016757042254 0.18617732688531297 -1.3504484912161343 -11.263399999999319 -7.732900734780463e-06 6.901592023708055e-05 -105.43511008268176 -22.818229690777414 39.9923253395893 -55.92928413476626 27.445544625975522 -64.31098080473899 50.40134154530784 60.990253343726096 -57.09283780658156 46.53196213371992 -19.683026501197162 -51.705311318634564 -91.18731501112816 -87.82889999999787 -89.998814376637 3.4088797460760567 4.338901093043223e-06 0.00327335019284197 -0.9548597750417755 -1.0100640649569286e-06 3.024217953664168e-07 -91.18718154053239 -89.40150000000307 -89.99856883819521 2.856368760953714 5.204120153970113e-07 0.0028308677525319963 -3.1684401320292466 1.0040415608187002e-05 2.5642230826390743e-07 88.8082834554462 -89.71700409279413 89.99676787203569 2.5448098924746674 1.7702575041337692e-06 0.002749759578509143 -2.544820009354609 -4.090130001481158e-06 9.645982533047129e-08 -91.18837672077542 -86.19729999999687 -89.99987825958053 6.131039476405342 2.907921432561695e-06 0.0065896591727792825 -2.0454212082417906 -3.8079544900830614e-06 1.5474056249488894e-06 -101.94899999999936 -40.7241999999985 -90.06939999999615 10.01719999999994 1.6339802640213974e-05 4.5722301761591865e-06 -2.669769751408195 -1.511945157498114e-05 -1.945436815094848e-06 53.31369587707837 -2.9270224709983337 -36.1248232450024 -32.689201492994535 8.047513225483966 14.429760173797733
16.756408405325253 82.69223920675662 11.229131505831305 49.247101181140245 98.01955389763042 101.58870506167042 -141.83084868211188 21.981617556517598 94.17346883311596 -76.63264574018697 -0.6079913589460206 0.11335298000442395 84.79731430392113 5.1927646990806435 4.862752815247204 28.780799999999836 5.386120106918509e-06 4.42655991334371e-06 8.193974656575719 37.693911677741674 81.29749823108479 -36.06888738218351 28.22806120251895 1.4052452767499928 54.428790546464455 13.117304943442948 12.467213209476972 28.780799468796644 1.4119261826386543e-05 1.9032434059575324e-05 -3.4515380652355834 7.760949836839995 -91.74089130551913 11.120128999621073 -7.351283517495453 -5.7641487403303895 -0.618891162924377 -7.508460097235686 -5.304348146505567 -23.24616043879487 -5.2827685452535595 -7.659062467018498 -3.265911775650886 -5.151682306926462 -7.577674900776358 144.41070339677526 -79.94518036479732 -29.338045839705394 -0.6521534971016791 26.156477409396636 -37.8694308503661 18.008037617749384 17.60193356886719 2.267740790093285 -24.72249465194801 10.495830072899192 -39.53209367106301 -89.40390648859234 88.97089999999828 89.09361297641694 -0.06048942297946406 1.2265141246723483e-05 8.408843112955565e-07 -0.06392019785300831 -1.67512469281243e-05 -7.994536146647091e-07 -89.39441843860007 88.98101556881541 89.08412707047295 -1.1574205956507488 -6.710292707524811e-07 2.5551324774596436e-07 2.5760000492715167 1.6770762487287383e-05 -2.5466535752553173e-06 -88.85651162896514 89.35789999999643 88.54639428057637 -1.1457801477749527 2.6899253710942135e-06 0.00027995229640387945 1.145770106180303 -6.734981984914138e-07 -5.292084696264108e-07 -89.42219347038365 88.94870000000444 89.11197772675551 0.40928642214106303 1.2016249856333224e-05 0.00040101047655157634 -0.6365999762023381 -1.1123015080971875e-05 -5.282944406593414e-07 104.36399979057701 40.50230471380661 -88.82460239290714 -7.669015877311769 0.18617727888888755 -1.3504486029418266 -11.263399999999326 -7.628717394764192e-06 6.897985508579157e-05 -105.7139170217227 -20.207129357974694 38.85770962760604 -53.57717187777632 24.601923261061792 -70.93725442283339 55.66288395631187 62.85903546041787 -59.9358178227855 46.49623193266975 -19.637003277274697 -50.73335879238809 -91.18731439489763 -87.8288999999979 -89.99881377447268 3.4088797459140596 4.271349686096553e-06 0.0032737756492507044 -0.9548596837341102 -9.555239914895583e-07 3.4140575747923366e-07 -91.18718223958288 -89.40150000000304 -89.99857007475407 2.8563687130432487 5.464533443938537e-07 0.0028317071081125095 -3.168440135328256 1.0076651902480948e-05 2.5933731759481925e-07 88.80828300619434 -89.7170041690604 89.99676709443673 2.5448099099436323 1.7557122034599659e-06 0.0027525863023549714 -2.544820016058343 -4.126399669471715e-06 9.967888986428176e-08 -91.18837628846217 -86.19729999999691 -89.99987772328278 6.1310394724529385 2.877584333292019e-06 0.006588899246276282 -2.0454213182169756 -3.80589026358024e-06 1.7363153257315982e-06 -101.94899999999936 -40.72419999999851 -90.06939999999621 10.01719999999994 1.6405675355238502e-05 4.560956300036547e-06 -2.6697698243483403 -1.5207499805215437e-05 -1.950091438326174e-06 52.65952227125248 -3.071891543529105 -37.427497584221356 -32.817431197177996 8.799687887218226 15.340635452343106
